G75*
%MOIN*%
%OFA0B0*%
%FSLAX26Y26*%
%IPPOS*%
%LPD*%
%AMOC8*
5,1,8,0,0,1.08239X$1,22.5*
%
%ADD10C,0.165480*%
%ADD11C,0.074000*%
%ADD12C,0.086000*%
%ADD13OC8,0.068000*%
%ADD14C,0.208000*%
%ADD15C,0.060000*%
%ADD16C,0.074000*%
%ADD17C,0.138000*%
%ADD18OC8,0.060000*%
%ADD19C,0.048000*%
D10*
X00157480Y00157480D03*
X03729528Y02807480D03*
X03729528Y03679528D03*
X00157480Y03692913D03*
D11*
X00350000Y03150000D03*
X00500000Y03150000D03*
X00500000Y02750000D03*
X00450000Y02650000D03*
X00350000Y02650000D03*
X00350000Y02750000D03*
X00550000Y02650000D03*
X00550000Y02250000D03*
X00550000Y02150000D03*
X00450000Y02150000D03*
X00450000Y02250000D03*
X00350000Y02250000D03*
X00350000Y02150000D03*
X00350000Y01750000D03*
X00450000Y01750000D03*
X00550000Y01750000D03*
D12*
X00189000Y03302000D02*
X00111000Y03302000D01*
X00111000Y03499000D02*
X00189000Y03499000D01*
X03701945Y03398000D02*
X03779945Y03398000D01*
X03779945Y03201000D02*
X03701945Y03201000D01*
X03721630Y02549000D02*
X03799630Y02549000D01*
X03799630Y02351000D02*
X03721630Y02351000D01*
X03721630Y02138370D02*
X03799630Y02138370D01*
X03799630Y01940370D02*
X03721630Y01940370D01*
D13*
X02400000Y03300000D03*
X02400000Y03400000D03*
X02300000Y03400000D03*
X02300000Y03300000D03*
X02200000Y03300000D03*
X02200000Y03400000D03*
X02100000Y03400000D03*
X02100000Y03300000D03*
X02000000Y03300000D03*
X02000000Y03400000D03*
X01900000Y03400000D03*
X01900000Y03300000D03*
X01800000Y03300000D03*
X01800000Y03400000D03*
X01700000Y03400000D03*
X01700000Y03300000D03*
X01600000Y03300000D03*
X01600000Y03400000D03*
X01500000Y03400000D03*
X01500000Y03300000D03*
X01400000Y03300000D03*
X01400000Y03400000D03*
X01300000Y03400000D03*
X01300000Y03300000D03*
X01200000Y03300000D03*
X01200000Y03400000D03*
X01100000Y03400000D03*
X01100000Y03300000D03*
X01000000Y03300000D03*
X01000000Y03400000D03*
X00900000Y03400000D03*
X00900000Y03300000D03*
X00800000Y03300000D03*
X00800000Y03400000D03*
X00700000Y03400000D03*
X00700000Y03300000D03*
X00600000Y03300000D03*
X00600000Y03400000D03*
X00500000Y03400000D03*
X00500000Y03300000D03*
X00822000Y03650000D03*
X00930000Y03650000D03*
X01038000Y03650000D03*
X01146000Y03650000D03*
X01254000Y03650000D03*
X01362000Y03650000D03*
X01308000Y03750000D03*
X01200000Y03750000D03*
X01092000Y03750000D03*
X00984000Y03750000D03*
X00876000Y03750000D03*
X01416000Y03750000D03*
X01524000Y03750000D03*
X01470000Y03650000D03*
X01578000Y03650000D03*
X02484000Y03650000D03*
X02592000Y03650000D03*
X02700000Y03650000D03*
X02646000Y03750000D03*
X02538000Y03750000D03*
X02754000Y03750000D03*
X02862000Y03750000D03*
X02808000Y03650000D03*
X02916000Y03650000D03*
X00200000Y02666000D03*
X00100000Y02612000D03*
X00100000Y02504000D03*
X00100000Y02396000D03*
X00100000Y02288000D03*
X00200000Y02234000D03*
X00200000Y02342000D03*
X00200000Y02450000D03*
X00200000Y02558000D03*
X00200000Y01166000D03*
X00200000Y01058000D03*
X00200000Y00950000D03*
X00100000Y00896000D03*
X00100000Y00788000D03*
X00200000Y00734000D03*
X00200000Y00842000D03*
X00100000Y01004000D03*
X00100000Y01112000D03*
D14*
X00150000Y01443000D03*
X00150000Y01957000D03*
X00150000Y02943000D03*
X00544000Y03700000D03*
X01856000Y03700000D03*
X02207000Y03700000D03*
X03193000Y03700000D03*
X00150000Y00457000D03*
D15*
X00400000Y00500000D02*
X00400000Y00552000D01*
X00500000Y00552000D02*
X00500000Y00500000D01*
X00600000Y00500000D02*
X00600000Y00552000D01*
X00850000Y00552000D02*
X00850000Y00500000D01*
X00950000Y00500000D02*
X00950000Y00552000D01*
X01050000Y00552000D02*
X01050000Y00500000D01*
X01300000Y00500000D02*
X01300000Y00552000D01*
X01400000Y00552000D02*
X01400000Y00500000D01*
X01500000Y00500000D02*
X01500000Y00552000D01*
X01750000Y00552000D02*
X01750000Y00500000D01*
X01850000Y00500000D02*
X01850000Y00552000D01*
X01950000Y00552000D02*
X01950000Y00500000D01*
X02200000Y00500000D02*
X02200000Y00552000D01*
X02300000Y00552000D02*
X02300000Y00500000D01*
X02400000Y00500000D02*
X02400000Y00552000D01*
X02650000Y00552000D02*
X02650000Y00500000D01*
X02750000Y00500000D02*
X02750000Y00552000D01*
X02850000Y00552000D02*
X02850000Y00500000D01*
X03100000Y00500000D02*
X03100000Y00552000D01*
X03200000Y00552000D02*
X03200000Y00500000D01*
X03300000Y00500000D02*
X03300000Y00552000D01*
X03550000Y00552000D02*
X03550000Y00500000D01*
X03650000Y00500000D02*
X03650000Y00552000D01*
X03750000Y00552000D02*
X03750000Y00500000D01*
X03750000Y00200000D02*
X03750000Y00148000D01*
X03650000Y00148000D02*
X03650000Y00200000D01*
X03550000Y00200000D02*
X03550000Y00148000D01*
X03300000Y00148000D02*
X03300000Y00200000D01*
X03200000Y00200000D02*
X03200000Y00148000D01*
X03100000Y00148000D02*
X03100000Y00200000D01*
X02850000Y00200000D02*
X02850000Y00148000D01*
X02750000Y00148000D02*
X02750000Y00200000D01*
X02650000Y00200000D02*
X02650000Y00148000D01*
X02400000Y00148000D02*
X02400000Y00200000D01*
X02300000Y00200000D02*
X02300000Y00148000D01*
X02200000Y00148000D02*
X02200000Y00200000D01*
X01950000Y00200000D02*
X01950000Y00148000D01*
X01850000Y00148000D02*
X01850000Y00200000D01*
X01750000Y00200000D02*
X01750000Y00148000D01*
X01500000Y00148000D02*
X01500000Y00200000D01*
X01400000Y00200000D02*
X01400000Y00148000D01*
X01300000Y00148000D02*
X01300000Y00200000D01*
X01050000Y00200000D02*
X01050000Y00148000D01*
X00950000Y00148000D02*
X00950000Y00200000D01*
X00850000Y00200000D02*
X00850000Y00148000D01*
X00600000Y00148000D02*
X00600000Y00200000D01*
X00500000Y00200000D02*
X00500000Y00148000D01*
X00400000Y00148000D02*
X00400000Y00200000D01*
X02750000Y01774000D02*
X02750000Y01826000D01*
X02850000Y01826000D02*
X02850000Y01774000D01*
X02950000Y01774000D02*
X02950000Y01826000D01*
X03050000Y01826000D02*
X03050000Y01774000D01*
X03150000Y01774000D02*
X03150000Y01826000D01*
X03250000Y01826000D02*
X03250000Y01774000D01*
X03350000Y01774000D02*
X03350000Y01826000D01*
X03450000Y01826000D02*
X03450000Y01774000D01*
X03450000Y02074000D02*
X03450000Y02126000D01*
X03350000Y02126000D02*
X03350000Y02074000D01*
X03250000Y02074000D02*
X03250000Y02126000D01*
X03150000Y02126000D02*
X03150000Y02074000D01*
X03050000Y02074000D02*
X03050000Y02126000D01*
X02950000Y02126000D02*
X02950000Y02074000D01*
X02850000Y02074000D02*
X02850000Y02126000D01*
X02750000Y02126000D02*
X02750000Y02074000D01*
D16*
X02400000Y01833000D02*
X02400000Y01767000D01*
X02300000Y01767000D02*
X02300000Y01833000D01*
X02200000Y01833000D02*
X02200000Y01767000D01*
X01950000Y01767000D02*
X01950000Y01833000D01*
X01850000Y01833000D02*
X01850000Y01767000D01*
X01750000Y01767000D02*
X01750000Y01833000D01*
X01500000Y01833000D02*
X01500000Y01767000D01*
X01400000Y01767000D02*
X01400000Y01833000D01*
X01300000Y01833000D02*
X01300000Y01767000D01*
X01050000Y01767000D02*
X01050000Y01833000D01*
X00950000Y01833000D02*
X00950000Y01767000D01*
X00850000Y01767000D02*
X00850000Y01833000D01*
X00850000Y00883000D02*
X00850000Y00817000D01*
X00950000Y00817000D02*
X00950000Y00883000D01*
X01050000Y00883000D02*
X01050000Y00817000D01*
X01300000Y00817000D02*
X01300000Y00883000D01*
X01400000Y00883000D02*
X01400000Y00817000D01*
X01500000Y00817000D02*
X01500000Y00883000D01*
X01750000Y00883000D02*
X01750000Y00817000D01*
X01850000Y00817000D02*
X01850000Y00883000D01*
X01950000Y00883000D02*
X01950000Y00817000D01*
X02200000Y00817000D02*
X02200000Y00883000D01*
X02300000Y00883000D02*
X02300000Y00817000D01*
X02400000Y00817000D02*
X02400000Y00883000D01*
X02650000Y00883000D02*
X02650000Y00817000D01*
X02750000Y00817000D02*
X02750000Y00883000D01*
X02850000Y00883000D02*
X02850000Y00817000D01*
X03100000Y00817000D02*
X03100000Y00883000D01*
X03200000Y00883000D02*
X03200000Y00817000D01*
X03300000Y00817000D02*
X03300000Y00883000D01*
X03550000Y00883000D02*
X03550000Y00817000D01*
X03650000Y00817000D02*
X03650000Y00883000D01*
X03750000Y00883000D02*
X03750000Y00817000D01*
X00600000Y00817000D02*
X00600000Y00883000D01*
X00500000Y00883000D02*
X00500000Y00817000D01*
X00400000Y00817000D02*
X00400000Y00883000D01*
D17*
X00500000Y01540000D03*
X00950000Y01540000D03*
X01400000Y01540000D03*
X01850000Y01540000D03*
X02300000Y01540000D03*
X02750000Y01540000D03*
X03200000Y01540000D03*
X03650000Y01540000D03*
X02300000Y02490000D03*
X01850000Y02490000D03*
X01400000Y02490000D03*
X00950000Y02490000D03*
D18*
X00800000Y02700000D03*
X01100000Y02700000D03*
X01250000Y02700000D03*
X01550000Y02700000D03*
X01700000Y02700000D03*
X02000000Y02700000D03*
X02150000Y02700000D03*
X02450000Y02700000D03*
X02750000Y02600000D03*
X02850000Y02600000D03*
X02950000Y02600000D03*
X03050000Y02600000D03*
X03150000Y02600000D03*
X03250000Y02600000D03*
X03350000Y02600000D03*
X03450000Y02600000D03*
X03450000Y02450000D03*
X03350000Y02450000D03*
X03250000Y02450000D03*
X03150000Y02450000D03*
X03050000Y02450000D03*
X02950000Y02450000D03*
X02850000Y02450000D03*
X02750000Y02450000D03*
X02750000Y02250000D03*
X02850000Y02250000D03*
X02950000Y02250000D03*
X03050000Y02250000D03*
X03150000Y02250000D03*
X03250000Y02250000D03*
X03350000Y02250000D03*
X03450000Y02250000D03*
X03450000Y02900000D03*
X03350000Y02900000D03*
X03250000Y02900000D03*
X03150000Y02900000D03*
X03050000Y02900000D03*
X02950000Y02900000D03*
X02850000Y02900000D03*
X02750000Y02900000D03*
X02800000Y03100000D03*
X02900000Y03250000D03*
X03000000Y03250000D03*
X03100000Y03100000D03*
X03200000Y03100000D03*
X03300000Y03250000D03*
X03400000Y03250000D03*
X03500000Y03100000D03*
X03500000Y00650000D03*
X03350000Y00650000D03*
X03400000Y00500000D03*
X03400000Y00200000D03*
X03050000Y00650000D03*
X02950000Y00500000D03*
X02900000Y00650000D03*
X02600000Y00650000D03*
X02450000Y00650000D03*
X02500000Y00500000D03*
X02500000Y00200000D03*
X02050000Y00200000D03*
X02050000Y00500000D03*
X02000000Y00650000D03*
X02150000Y00650000D03*
X01700000Y00650000D03*
X01550000Y00650000D03*
X01600000Y00500000D03*
X01600000Y00200000D03*
X01150000Y00200000D03*
X01150000Y00500000D03*
X01100000Y00650000D03*
X01250000Y00650000D03*
X00800000Y00650000D03*
X00650000Y00650000D03*
X00700000Y00500000D03*
X00700000Y00200000D03*
X00300000Y00100000D03*
X00300000Y00400000D03*
X00350000Y00650000D03*
X02950000Y00200000D03*
X03800000Y00650000D03*
D19*
X03390000Y00780000D03*
X02976000Y01344000D03*
X03012000Y01434000D03*
X02490000Y01026000D03*
X02352000Y00672000D03*
X02706000Y00684000D03*
X02412000Y01698000D03*
X02190000Y02028000D03*
X02796000Y02568000D03*
X02928000Y02382000D03*
X03270000Y02370000D03*
X03552000Y02742000D03*
X03516000Y02778000D03*
X03444000Y03198000D03*
X02100000Y03522000D03*
X01920000Y03582000D03*
X01830000Y03204000D03*
X01074000Y02820000D03*
X00828000Y02136000D03*
X00816000Y02046000D03*
X00684000Y01854000D03*
X00690000Y01542000D03*
X00324000Y01122000D03*
X00564000Y00702000D03*
X00384000Y00444000D03*
X00954000Y00438000D03*
X01098000Y01086000D03*
X01284000Y01152000D03*
X01302000Y01092000D03*
X01644000Y00906000D03*
X01644000Y00612000D03*
X01314000Y01938000D03*
X00258000Y02784000D03*
M02*
